name D:\school\WTK\thesis\model\3dpredictsim\Results\MidTarsalJoint\Fal_s1_bCst_PF_Natali2010_ls150_MT_k100000_MTP_T5_ig23.mot
datacolumns 128
datarows 4
range 1.66354341 1.69681428
endheader
time	pelvis_tilt	pelvis_list	pelvis_rotation	pelvis_tx	pelvis_ty	pelvis_tz	hip_flexion_l	hip_adduction_l	hip_rotation_l	hip_flexion_r	hip_adduction_r	hip_rotation_r	knee_angle_l	knee_angle_r	ankle_angle_l	ankle_angle_r	subtalar_angle_l	subtalar_angle_r	mtj_angle_l	mtj_angle_r	mtp_angle_l	mtp_angle_r	lumbar_extension	lumbar_bending	lumbar_rotation	arm_flex_l	arm_add_l	arm_rot_l	arm_flex_r	arm_add_r	arm_rot_r	elbow_flex_l	elbow_flex_r	pro_sup_l	pro_sup_r	glut_med1_l/activation	glut_med2_l/activation	glut_med3_l/activation	glut_min1_l/activation	glut_min2_l/activation	glut_min3_l/activation	semimem_l/activation	semiten_l/activation	bifemlh_l/activation	bifemsh_l/activation	sar_l/activation	add_long_l/activation	add_brev_l/activation	add_mag1_l/activation	add_mag2_l/activation	add_mag3_l/activation	tfl_l/activation	pect_l/activation	grac_l/activation	glut_max1_l/activation	glut_max2_l/activation	glut_max3_l/activation	iliacus_l/activation	psoas_l/activation	quad_fem_l/activation	gem_l/activation	peri_l/activation	rect_fem_l/activation	vas_med_l/activation	vas_int_l/activation	vas_lat_l/activation	med_gas_l/activation	lat_gas_l/activation	soleus_l/activation	tib_post_l/activation	flex_dig_l/activation	flex_hal_l/activation	tib_ant_l/activation	per_brev_l/activation	per_long_l/activation	per_tert_l/activation	ext_dig_l/activation	ext_hal_l/activation	ercspn_l/activation	intobl_l/activation	extobl_l/activation	glut_med1_r/activation	glut_med2_r/activation	glut_med3_r/activation	glut_min1_r/activation	glut_min2_r/activation	glut_min3_r/activation	semimem_r/activation	semiten_r/activation	bifemlh_r/activation	bifemsh_r/activation	sar_r/activation	add_long_r/activation	add_brev_r/activation	add_mag1_r/activation	add_mag2_r/activation	add_mag3_r/activation	tfl_r/activation	pect_r/activation	grac_r/activation	glut_max1_r/activation	glut_max2_r/activation	glut_max3_r/activation	iliacus_r/activation	psoas_r/activation	quad_fem_r/activation	gem_r/activation	peri_r/activation	rect_fem_r/activation	vas_med_r/activation	vas_int_r/activation	vas_lat_r/activation	med_gas_r/activation	lat_gas_r/activation	soleus_r/activation	tib_post_r/activation	flex_dig_r/activation	flex_hal_r/activation	tib_ant_r/activation	per_brev_r/activation	per_long_r/activation	per_tert_r/activation	ext_dig_r/activation	ext_hal_r/activation	ercspn_r/activation	intobl_r/activation	extobl_r/activation	
          1.66354341	         -2.92946797	          2.01918253	         -5.00374576	          2.07942926	          0.92007666	          0.00163865	         29.42080086	          3.51223180	         -1.79245883	        -17.67074966	         -1.09750241	          6.28686963	        -13.06711718	         -6.41462085	          6.16870507	         -0.43200419	         -4.46452285	          8.91931316	         -0.00004326	          0.01507154	         -0.89728957	         21.33181264	         -2.16711945	         -0.35202491	          1.88092250	         -4.58371403	        -13.47710833	          7.32513987	          5.41053979	        -13.46209033	         17.35190283	         16.19186085	         32.25837026	         86.51662706	         86.51662706	          0.05923868	          0.05924026	          0.05000030	          0.05924196	          0.05924186	          0.05000768	          0.05924377	          0.05000566	          0.21969584	          0.05000022	          0.05000085	          0.13830477	          0.31596216	          0.15741266	          0.15797354	          0.11574127	          0.05000025	          0.08328349	          0.07350240	          0.05000095	          0.13982475	          0.16180769	          0.05402440	          0.05000088	          0.16743168	          0.25884118	          0.13219351	          0.05763209	          0.14862599	          0.14464042	          0.13013776	          0.05047563	          0.05081284	          0.05434794	          0.05000004	          0.05000098	          0.05000037	          0.59630977	          0.27870181	          0.17011720	          0.29937185	          0.51262038	          0.26159973	          0.05924200	          0.10393658	          0.10036416	          0.27976835	          0.09854031	          0.07019437	          0.30020558	          0.19425687	          0.10515835	          0.05000144	          0.05000045	          0.05000031	          0.06197903	          0.09859027	          0.11006506	          0.07270269	          0.05000561	          0.05000762	          0.05000152	          0.30055989	          0.09757049	          0.05000693	          0.05000441	          0.05000231	          0.05000233	          0.36140888	          0.61375136	          0.05000063	          0.05000098	          0.05004208	          0.19597027	          0.05475317	          0.05051173	          0.05023881	          0.28281494	          0.38887300	          0.28605195	          0.29511840	          0.30070422	          0.39205036	          0.05000006	          0.05924177	          0.12858905	          0.05000039	          0.05000010	          0.05000035	          0.05000012	          0.05000021	          0.05000025	
          1.67463370	         -2.92424493	          2.12335964	         -5.28448664	          2.09610234	          0.91899738	          0.00142951	         28.78742805	          3.85776291	         -1.54568291	        -17.47480472	         -1.39968969	          6.06938247	        -13.22224261	         -8.44793713	          5.54696210	         -1.22095066	         -4.85309291	          9.83714837	         -0.00056098	          0.01099262	         -0.88132989	         22.21897680	         -1.97536855	         -0.57573176	          1.94270379	         -5.46533695	        -13.48284970	          6.97526538	          5.13282310	        -13.47605490	         17.64358134	         15.93349221	         33.38726612	         86.51662706	         86.51662706	          0.05000004	          0.05000012	          0.10310686	          0.05000014	          0.05000016	          0.05000024	          0.05000173	          0.05000170	          0.18542278	          0.05000089	          0.05000559	          0.11672931	          0.26667221	          0.32346892	          0.21878215	          0.13737657	          0.05000139	          0.07030386	          0.12747277	          0.07361496	          0.11918013	          0.13656562	          0.05000024	          0.05000219	          0.38911472	          0.21846130	          0.11157104	          0.05926072	          0.16397062	          0.16959372	          0.14260192	          0.05000037	          0.05924305	          0.05000007	          0.06789630	          0.05000728	          0.05924314	          0.50328382	          0.33265443	          0.21220160	          0.25266961	          0.45260202	          0.22078956	          0.05000010	          0.08772219	          0.08470708	          0.23612384	          0.08316780	          0.05924393	          0.25337301	          0.16395237	          0.08875345	          0.05000920	          0.05000145	          0.05000216	          0.05231024	          0.08321032	          0.19300641	          0.12294330	          0.07019389	          0.05924179	          0.05924404	          0.25367199	          0.08235571	          0.05001285	          0.05004539	          0.05003376	          0.05019892	          0.30502822	          0.56385595	          0.05020758	          0.05924236	          0.05516184	          0.16539855	          0.14257460	          0.15245385	          0.14308844	          0.23869500	          0.32820774	          0.24142705	          0.24963416	          0.25379471	          0.33089081	          0.05000009	          0.05000029	          0.13466111	          0.05000023	          0.05000008	          0.05000037	          0.05877575	          0.05924484	          0.05665477	
          1.68572399	         -2.91520836	          2.23004100	         -5.53761664	          2.11302326	          0.91793931	          0.00123290	         28.01997486	          4.12793303	         -1.28052612	        -17.19445104	         -1.69749688	          5.84108936	        -13.67222533	        -10.61843113	          5.08757072	         -2.18561211	         -5.25869797	         10.69845346	         -0.00067189	          0.00670116	         -0.95009523	         22.92573697	         -1.76674743	         -0.80838431	          1.99383159	         -6.36415807	        -13.49467373	          6.68386964	          4.78215595	        -13.49011792	         17.85684653	         15.71238304	         34.51175076	         86.51662706	         86.51662706	          0.24783851	          0.24344265	          0.28954265	          0.34954576	          0.22736766	          0.18504788	          0.06682048	          0.05000176	          0.15799713	          0.05012712	          0.05207795	          0.09851931	          0.22507071	          0.27300705	          0.18465179	          0.11594772	          0.05000153	          0.05934022	          0.10758722	          0.15496767	          0.14548170	          0.11526121	          0.05626381	          0.05000268	          0.32841186	          0.18438101	          0.22177707	          0.05001595	          0.13839090	          0.14313680	          0.12035575	          0.05000139	          0.05000170	          0.05020507	          0.05730440	          0.05000079	          0.05000171	          0.59404114	          0.35742541	          0.18642448	          0.32340849	          0.54409771	          0.24216062	          0.06409394	          0.10660395	          0.07149255	          0.34016905	          0.07019343	          0.05000179	          0.33339592	          0.13837550	          0.07490775	          0.05000363	          0.05000053	          0.05000041	          0.05000053	          0.07022997	          0.16455548	          0.11767182	          0.05924413	          0.05000602	          0.05000257	          0.21564736	          0.08316238	          0.05000401	          0.05000341	          0.05000198	          0.05000146	          0.25744322	          0.52435064	          0.05000037	          0.05000175	          0.05000046	          0.13959600	          0.12033289	          0.12867096	          0.12076655	          0.20145791	          0.27700642	          0.20376374	          0.21069070	          0.21420243	          0.27927126	          0.05000004	          0.09969043	          0.15601939	          0.05000030	          0.05000011	          0.05000030	          0.05773118	          0.05000250	          0.05000011	
          1.69681428	         -2.90447101	          2.32894370	         -5.75784461	          2.12997896	          0.91693416	          0.00101259	         27.19106815	          4.38046330	         -1.01826097	        -16.80530346	         -1.98241167	          5.61707538	        -14.07104571	        -12.94277414	          4.69420354	         -3.31260680	         -5.67752967	         11.50845294	         -0.00075915	          0.00247940	         -0.94436036	         23.37615015	         -1.56338423	         -1.03874671	          2.03657546	         -7.23127484	        -13.50598548	          6.45514149	          4.39516380	        -13.51021456	         18.01428381	         15.49971438	         35.60778373	         86.51662706	         86.51662706	          0.33902830	          0.34808328	          0.38433757	          0.29501644	          0.19190026	          0.22155075	          0.06725172	          0.09894708	          0.13334938	          0.07017752	          0.05000117	          0.08315013	          0.18995928	          0.23041874	          0.20093353	          0.16552735	          0.05000057	          0.05009356	          0.11537738	          0.23679502	          0.19286045	          0.16240805	          0.05000026	          0.05000025	          0.27717884	          0.15561724	          0.20199018	          0.05000010	          0.16312570	          0.18187453	          0.13980852	          0.05000006	          0.05000011	          0.05000001	          0.05000002	          0.05000025	          0.05000022	          0.64861453	          0.30166677	          0.15734230	          0.57939747	          0.56550725	          0.34088722	          0.08650382	          0.08997348	          0.06033952	          0.30087196	          0.05924313	          0.05000019	          0.28139061	          0.11678869	          0.06322204	          0.05000835	          0.05000059	          0.05000051	          0.05000037	          0.05927431	          0.17819836	          0.09951271	          0.05000478	          0.05001779	          0.05008532	          0.18201042	          0.07019049	          0.05000227	          0.05000653	          0.05000383	          0.05000287	          0.21728143	          0.47248342	          0.05000046	          0.05000140	          0.05000035	          0.11781869	          0.11453551	          0.11462998	          0.11582562	          0.17002990	          0.23379265	          0.17197602	          0.17782245	          0.18078657	          0.23570440	          0.05000177	          0.10867159	          0.15224677	          0.05000082	          0.11795786	          0.05000194	          0.08919781	          0.05000004	          0.05000009	
